<svg viewBox="-610 -300 1220 600" width="1220" height="600" style="background-color: rgb(255, 255, 255);" xmlns="http://www.w3.org/2000/svg"><path d="M-51.862734306893756,38.04216180130985L-80.82756378475932,33.5262673140645M-80.82756378475933,-127.26215568483474L-80.82756378475932,33.5262673140645M-80.82756378475932,33.5262673140645L-148.6779669952624,91.48004407137486M-51.86273430689377,-122.7462611975894L-51.862734306893756,38.04216180130985M-51.862734306893756,38.04216180130985L-119.71313751739685,95.99593855862021" style="fill:none;stroke:rgb(0,0,0);stroke-width:1;stroke-linecap:round"></path><path d="M-51.86273430689374,38.042161801309845L-80.82756378475932,33.5262673140645L-80.82756378475933,-127.26215568483477zM-51.86273430689376,-122.7462611975894L-51.86273430689374,38.042161801309845L-80.82756378475933,-127.26215568483477zM-148.6779669952624,91.48004407137485L-80.82756378475932,33.5262673140645L-51.86273430689374,38.042161801309845z" style="fill:rgb(238,238,238); fill-opacity: 0.4"></path><path d="M-51.86273430689377,-122.7462611975894L-80.82756378475933,-127.26215568483474M-80.82756378475933,-127.26215568483474L-148.67796699526244,-69.30837892752439M-63.0266668745026,-61.93804483451952L-91.99149635236817,-66.45393932176488M-91.99149635236817,-87.60779858850825L-91.99149635236817,-66.45393932176488M-91.99149635236817,-66.45393932176488L-100.91812088127844,-58.82934785780854" style="fill:none;stroke:rgb(0,0,0);stroke-width:1;stroke-linecap:round"></path><path d="M-63.026666874502595,-61.938044834519516L-91.99149635236816,-66.45393932176486L-91.99149635236816,-87.60779858850825z" style="fill:rgb(153,221,255); fill-opacity: 0.4"></path><path d="M-51.86273430689377,-122.7462611975894L-119.71313751739686,-64.79248444027903M-63.0266668745026,-83.09190410126288L-91.99149635236817,-87.60779858850825M-91.99149635236817,-87.60779858850825L-100.91812088127844,-79.98320712455191" style="fill:none;stroke:rgb(0,0,0);stroke-width:1;stroke-linecap:round"></path><path d="M-100.91812088127844,-58.82934785780854L-91.99149635236816,-66.45393932176486L-63.026666874502595,-61.938044834519516z" style="fill:rgb(153,221,255); fill-opacity: 0.4"></path><path d="M75.26236201414112,36.053670962751944L-26.114539165809102,20.24804056805541M-26.11453916580911,-64.52252566096027L-26.114539165809102,20.24804056805541M-26.114539165809102,20.24804056805541L-61.886499557887504,50.80232040486182M-63.0266668745026,-83.09190410126288L-63.0266668745026,-61.93804483451952M-63.0266668745026,-61.93804483451952L-71.95329140341288,-54.313453370563195M-63.02666520368589,-83.09190328702981L-63.02666520368589,-61.938044020286426M-63.02666520368589,-61.938044020286426L-71.9532888812869,-54.31345328346781M-63.02666520368589,-61.938044020286426L-34.35350821929741,-36.029769455678604" style="fill:none;stroke:rgb(0,0,0);stroke-width:1;stroke-linecap:round"></path><path d="M-91.99149635236816,-87.60779858850825L-91.99149635236816,-66.45393932176486L-100.91812088127844,-79.98320712455191zM-63.026666874502595,-83.09190410126288L-63.026666874502595,-61.938044834519516L-91.99149635236816,-87.60779858850825z" style="fill:rgb(153,221,255); fill-opacity: 0.4"></path><path d="M-119.71313751739685,95.99593855862021L-51.86273430689374,38.042161801309845L-51.86273430689376,-122.7462611975894z" style="fill:rgb(238,238,238); fill-opacity: 0.4"></path><path d="M-91.99149635236816,-66.45393932176486L-100.91812088127844,-58.82934785780854L-100.91812088127844,-79.98320712455191z" style="fill:rgb(153,221,255); fill-opacity: 0.4"></path><path d="M-100.91812088127844,-79.98320712455191L-100.91812088127844,-58.82934785780854M-100.91812088127844,-58.82934785780854L-71.95329140341288,-54.313453370563195M-63.0266668745026,-83.09190410126288L-71.95329140341288,-75.46731263730658M-63.02666520368589,-83.09190328702981L-71.95328888128691,-75.46731255021118M-63.02666520368589,-83.09190328702981L-34.35350821929741,-36.029769455678604" style="fill:none;stroke:rgb(0,0,0);stroke-width:1;stroke-linecap:round"></path><path d="M-71.95329140341286,-54.313453370563195L-100.91812088127844,-58.82934785780854L-63.026666874502595,-61.938044834519516z" style="fill:rgb(153,221,255); fill-opacity: 0.4"></path><path d="M-63.026666914297884,-83.09190410746736L-63.026666914297884,-61.93804484072398L-71.95329144320816,-54.31345337676766z" style="fill:rgb(255,187,187); fill-opacity: 0.4"></path><path d="M-71.95329140341286,-54.313453370563195L-63.026666874502595,-61.938044834519516L-63.026666874502595,-83.09190410126288zM-71.95329140341288,-75.46731263730658L-63.026666874502595,-83.09190410126288L-91.99149635236816,-87.60779858850825z" style="fill:rgb(153,221,255); fill-opacity: 0.4"></path><path d="M-80.82756378475933,-127.26215568483477L-80.82756378475932,33.5262673140645L-148.67796699526244,-69.30837892752439z" style="fill:rgb(238,238,238); fill-opacity: 0.4"></path><path d="M-100.91812088127844,-79.98320712455191L-71.95329140341288,-75.46731263730658L-91.99149635236816,-87.60779858850825z" style="fill:rgb(153,221,255); fill-opacity: 0.4"></path><path d="M-100.91812088127844,-79.98320712455191L-71.95329140341288,-75.46731263730658" style="fill:none;stroke:rgb(0,0,0);stroke-width:1;stroke-linecap:round"></path><path d="M-63.026666914297884,-61.93804484072398L-63.026666914297884,-83.09190410746736L-34.353506618898116,-36.029770150441905z" style="fill:rgb(255,187,187); fill-opacity: 0.4"></path><path d="M-100.91812088127844,-79.98320712455191L-100.91812088127844,-58.82934785780854L-71.95329140341288,-75.46731263730658zM-100.91812088127844,-58.82934785780854L-71.95329140341286,-54.313453370563195L-71.95329140341288,-75.46731263730658z" style="fill:rgb(153,221,255); fill-opacity: 0.4"></path><path d="M-63.026666914297884,-83.09190410746736L-71.95329144320816,-54.31345337676766L-71.95329144320816,-75.46731264351102z" style="fill:rgb(255,187,187); fill-opacity: 0.4"></path><path d="M-71.95329140341288,-75.46731263730658L-71.95329140341286,-54.313453370563195L-63.026666874502595,-83.09190410126288z" style="fill:rgb(153,221,255); fill-opacity: 0.4"></path><path d="M-71.95329140341288,-75.46731263730658L-71.95329140341288,-54.313453370563195M-71.9532888812869,-54.31345328346781L-71.95328888128691,-75.46731255021118M-71.9532888812869,-54.31345328346781L-34.35350821929741,-36.029769455678604" style="fill:none;stroke:rgb(0,0,0);stroke-width:1;stroke-linecap:round"></path><path d="M-71.95329144320816,-54.31345337676766L-63.026666914297884,-61.93804484072398L-34.353506618898116,-36.029770150441905z" style="fill:rgb(255,187,187); fill-opacity: 0.4"></path><path d="M75.26236201414113,36.053670962751944L-26.114539165809106,20.24804056805541L-26.114539165809113,-64.52252566096027z" style="fill:rgb(238,238,238); fill-opacity: 0.4"></path><path d="M-63.026666914297884,-83.09190410746736L-71.95329144320816,-75.46731264351102L-34.353506618898116,-36.029770150441905z" style="fill:rgb(255,187,187); fill-opacity: 0.4"></path><path d="M-119.71313751739685,95.99593855862021L-148.6779669952624,91.48004407137485L-51.86273430689374,38.042161801309845z" style="fill:rgb(238,238,238); fill-opacity: 0.4"></path><path d="M-71.95328888128691,-75.46731255021118L-34.35350821929741,-36.029769455678604" style="fill:none;stroke:rgb(0,0,0);stroke-width:1;stroke-linecap:round"></path><path d="M-71.95329144320816,-75.46731264351102L-71.95329144320816,-54.31345337676766L-34.353506618898116,-36.029770150441905z" style="fill:rgb(255,187,187); fill-opacity: 0.4"></path><path d="M75.2623620141411,-48.716895266263734L-26.11453916580911,-64.52252566096027M-26.11453916580911,-64.52252566096027L-61.88649955788751,-33.96824582415386" style="fill:none;stroke:rgb(0,0,0);stroke-width:1;stroke-linecap:round"></path><path d="M-61.886499557887504,50.80232040486182L-26.114539165809106,20.24804056805541L75.26236201414113,36.053670962751944z" style="fill:rgb(238,238,238); fill-opacity: 0.4"></path><path d="M75.2623620141411,-48.716895266263734L75.26236201414112,36.053670962751944M75.26236201414112,36.053670962751944L39.49040162206271,66.60795079955835" style="fill:none;stroke:rgb(0,0,0);stroke-width:1;stroke-linecap:round"></path><path d="M-80.82756378475932,33.5262673140645L-148.6779669952624,91.48004407137485L-148.67796699526244,-69.30837892752439zM-119.71313751739686,-64.79248444027904L-51.86273430689376,-122.7462611975894L-80.82756378475933,-127.26215568483477zM-26.114539165809113,-64.52252566096027L-26.114539165809106,20.24804056805541L-61.88649955788751,-33.96824582415386zM75.26236201414112,-48.71689526626374L75.26236201414113,36.053670962751944L-26.114539165809113,-64.52252566096027z" style="fill:rgb(238,238,238); fill-opacity: 0.4"></path><path d="M62.79913346809808,-16.398382170481543L-38.57776771185214,-32.204012565178076M-38.577767711852154,-42.780942198549766L-38.57776771185214,-32.204012565178076M-38.57776771185214,-32.204012565178076L-43.04107997630729,-28.391716833199908M62.79913346809806,-26.97531180385323L-38.577767711852154,-42.780942198549766M-38.577767711852154,-42.780942198549766L-43.04107997630729,-38.9686464665716" style="fill:none;stroke:rgb(0,0,0);stroke-width:1;stroke-linecap:round"></path><path d="M-38.57776771185215,-42.780942198549766L-38.57776771185215,-32.204012565178076L-43.04107997630729,-38.9686464665716zM-38.57776771185215,-32.204012565178076L-43.04107997630729,-28.391716833199908L-43.04107997630729,-38.9686464665716z" style="fill:rgb(153,221,255); fill-opacity: 0.4"></path><path d="M-43.04107997630729,-38.9686464665716L-43.04107997630729,-28.391716833199908M-43.04107997630729,-28.391716833199908L58.33582120364293,-12.58608643850338" style="fill:none;stroke:rgb(0,0,0);stroke-width:1;stroke-linecap:round"></path><path d="M-26.114539165809106,20.24804056805541L-61.886499557887504,50.80232040486182L-61.88649955788751,-33.96824582415386z" style="fill:rgb(238,238,238); fill-opacity: 0.4"></path><path d="M-43.04107997630729,-38.9686464665716L58.33582120364293,-23.163016071875063" style="fill:none;stroke:rgb(0,0,0);stroke-width:1;stroke-linecap:round"></path><path d="M62.79913346809808,-16.398382170481543L-38.57776771185215,-32.204012565178076L-38.57776771185215,-42.780942198549766zM-43.04107997630729,-28.391716833199908L-38.57776771185215,-32.204012565178076L62.79913346809808,-16.398382170481543z" style="fill:rgb(153,221,255); fill-opacity: 0.4"></path><path d="M-148.67796699526244,-69.30837892752439L-148.6779669952624,91.48004407137486M-148.6779669952624,91.48004407137486L-119.71313751739685,95.99593855862021M75.2623620141411,-48.716895266263734L39.490401622062706,-18.16261542945733" style="fill:none;stroke:rgb(0,0,0);stroke-width:1;stroke-linecap:round"></path><path d="M-119.71313751739686,-64.79248444027904L-119.71313751739685,95.99593855862021L-51.86273430689376,-122.7462611975894z" style="fill:rgb(238,238,238); fill-opacity: 0.4"></path><path d="M-43.04107997630729,-38.9686464665716L58.33582120364294,-23.16301607187506L-38.57776771185215,-42.780942198549766z" style="fill:rgb(153,221,255); fill-opacity: 0.4"></path><path d="M39.49040162206273,66.60795079955834L75.26236201414113,36.053670962751944L75.26236201414112,-48.71689526626374z" style="fill:rgb(238,238,238); fill-opacity: 0.4"></path><path d="M-43.04107997630729,-38.9686464665716L-43.04107997630729,-28.391716833199908L58.33582120364294,-23.16301607187506z" style="fill:rgb(153,221,255); fill-opacity: 0.4"></path><path d="M-61.88649955788751,-33.96824582415386L-61.886499557887504,50.80232040486182M-61.886499557887504,50.80232040486182L39.49040162206271,66.60795079955835" style="fill:none;stroke:rgb(0,0,0);stroke-width:1;stroke-linecap:round"></path><path d="M39.49040162206273,66.60795079955834L-61.886499557887504,50.80232040486182L75.26236201414113,36.053670962751944z" style="fill:rgb(238,238,238); fill-opacity: 0.4"></path><path d="M-119.71313751739686,-64.79248444027903L-119.71313751739685,95.99593855862021" style="fill:none;stroke:rgb(0,0,0);stroke-width:1;stroke-linecap:round"></path><path d="M62.79913346809808,-26.975311803853227L62.79913346809808,-16.398382170481543L-38.57776771185215,-42.780942198549766zM58.33582120364294,-12.586086438503376L-43.04107997630729,-28.391716833199908L62.79913346809808,-16.398382170481543z" style="fill:rgb(153,221,255); fill-opacity: 0.4"></path><path d="M39.49040162206271,-18.16261542945733L75.26236201414112,-48.71689526626374L-26.114539165809113,-64.52252566096027z" style="fill:rgb(238,238,238); fill-opacity: 0.4"></path><path d="M58.33582120364294,-23.16301607187506L62.79913346809808,-26.975311803853227L-38.57776771185215,-42.780942198549766z" style="fill:rgb(153,221,255); fill-opacity: 0.4"></path><path d="M-148.67796699526244,-69.30837892752439L-119.71313751739686,-64.79248444027904L-80.82756378475933,-127.26215568483477z" style="fill:rgb(238,238,238); fill-opacity: 0.4"></path><path d="M-43.04107997630729,-28.391716833199908L58.33582120364294,-12.586086438503376L58.33582120364294,-23.16301607187506z" style="fill:rgb(153,221,255); fill-opacity: 0.4"></path><path d="M62.79913346809806,-26.97531180385323L62.79913346809808,-16.398382170481543M62.79913346809808,-16.398382170481543L58.33582120364293,-12.58608643850338M62.79913529961408,-26.975311134235064L62.79913529961408,-16.39838150086338M62.79913529961408,-16.39838150086338L58.33582282233163,-12.586085587100788M62.79913529961408,-16.39838150086338L99.16379919177315,15.46058658645461M62.79913346809806,-26.97531180385323L58.33582120364293,-23.163016071875063M62.79913529961408,-26.975311134235064L58.33582282233163,-23.163015220472474M62.79913529961408,-26.975311134235064L99.16379919177315,15.46058658645461" style="fill:none;stroke:rgb(0,0,0);stroke-width:1;stroke-linecap:round"></path><path d="M58.33582120364294,-12.586086438503376L62.79913346809808,-16.398382170481543L62.79913346809808,-26.975311803853227z" style="fill:rgb(153,221,255); fill-opacity: 0.4"></path><path d="M62.799134325104184,-26.975311670237765L62.799134325104184,-16.398382036866078L58.33582206064904,-12.586086304887912z" style="fill:rgb(255,187,187); fill-opacity: 0.4"></path><path d="M-148.6779669952624,91.48004407137485L-119.71313751739685,95.99593855862021L-119.71313751739686,-64.79248444027904zM-61.88649955788751,-33.96824582415386L39.49040162206271,-18.16261542945733L-26.114539165809113,-64.52252566096027z" style="fill:rgb(238,238,238); fill-opacity: 0.4"></path><path d="M62.799134325104184,-16.398382036866078L62.799134325104184,-26.975311670237765L99.1637984081942,15.46058646428714z" style="fill:rgb(255,187,187); fill-opacity: 0.4"></path><path d="M58.33582120364294,-23.16301607187506L58.33582120364294,-12.586086438503376L62.79913346809808,-26.975311803853227z" style="fill:rgb(153,221,255); fill-opacity: 0.4"></path><path d="M62.799134325104184,-26.975311670237765L58.33582206064904,-12.586086304887912L58.33582206064904,-23.1630159382596z" style="fill:rgb(255,187,187); fill-opacity: 0.4"></path><path d="M58.33582120364293,-23.163016071875063L58.33582120364293,-12.58608643850338M58.33582282233163,-12.586085587100788L58.33582282233163,-23.163015220472474M58.33582282233163,-12.586085587100788L99.16379919177315,15.46058658645461" style="fill:none;stroke:rgb(0,0,0);stroke-width:1;stroke-linecap:round"></path><path d="M58.33582206064904,-12.586086304887912L62.799134325104184,-16.398382036866078L99.1637984081942,15.46058646428714zM62.799134325104184,-26.975311670237765L58.33582206064904,-23.1630159382596L99.1637984081942,15.46058646428714z" style="fill:rgb(255,187,187); fill-opacity: 0.4"></path><path d="M58.33582282233163,-23.163015220472474L99.16379919177315,15.46058658645461" style="fill:none;stroke:rgb(0,0,0);stroke-width:1;stroke-linecap:round"></path><path d="M58.33582206064904,-23.1630159382596L58.33582206064904,-12.586086304887912L99.1637984081942,15.46058646428714z" style="fill:rgb(255,187,187); fill-opacity: 0.4"></path><path d="M186.50461595627127,29.684732986886946L99.61013150783307,16.13705014647529M99.61013150783307,14.021664219800952L99.61013150783307,16.13705014647529M99.61013150783307,16.13705014647529L98.71746905494204,16.899509292870924M-61.88649955788751,-33.96824582415386L39.490401622062706,-18.16261542945733M186.50461595627127,27.569347060212607L99.61013150783307,14.021664219800952M99.61013150783307,14.021664219800952L98.71746905494204,14.784123366196585" style="fill:none;stroke:rgb(0,0,0);stroke-width:1;stroke-linecap:round"></path><path d="M99.61013150783307,14.021664219800952L99.61013150783307,16.13705014647529L98.71746905494203,14.784123366196585zM99.61013150783307,16.13705014647529L98.71746905494203,16.899509292870924L98.71746905494203,14.784123366196585z" style="fill:rgb(238,238,238); fill-opacity: 0.4"></path><path d="M98.71746905494204,14.784123366196585L98.71746905494204,16.899509292870924M98.71746905494204,16.899509292870924L185.61195350338025,30.447192133282577" style="fill:none;stroke:rgb(0,0,0);stroke-width:1;stroke-linecap:round"></path><path d="M-61.88649955788751,-33.96824582415386L-61.886499557887504,50.80232040486182L39.49040162206271,-18.16261542945733z" style="fill:rgb(238,238,238); fill-opacity: 0.4"></path><path d="M98.71746905494204,14.784123366196585L185.61195350338025,28.33180620660824" style="fill:none;stroke:rgb(0,0,0);stroke-width:1;stroke-linecap:round"></path><path d="M39.49040162206271,-18.16261542945733L39.49040162206273,66.60795079955834L75.26236201414112,-48.71689526626374zM-148.67796699526244,-69.30837892752439L-148.6779669952624,91.48004407137485L-119.71313751739686,-64.79248444027904zM-61.886499557887504,50.80232040486182L39.49040162206273,66.60795079955834L39.49040162206271,-18.16261542945733z" style="fill:rgb(238,238,238); fill-opacity: 0.4"></path><path d="M39.490401622062706,-18.16261542945733L39.49040162206271,66.60795079955835" style="fill:none;stroke:rgb(0,0,0);stroke-width:1;stroke-linecap:round"></path><path d="M186.50461595627127,29.684732986886942L99.61013150783307,16.13705014647529L99.61013150783307,14.021664219800952zM98.71746905494203,16.899509292870924L99.61013150783307,16.13705014647529L186.50461595627127,29.684732986886942zM98.71746905494203,14.784123366196585L185.61195350338025,28.33180620660824L99.61013150783307,14.021664219800952zM98.71746905494203,14.784123366196585L98.71746905494203,16.899509292870924L185.61195350338025,28.33180620660824z" style="fill:rgb(238,238,238); fill-opacity: 0.4"></path><path d="M-148.67796699526244,-69.30837892752439L-119.71313751739686,-64.79248444027903" style="fill:none;stroke:rgb(0,0,0);stroke-width:1;stroke-linecap:round"></path><path d="M186.50461595627127,27.569347060212607L186.50461595627127,29.684732986886942L99.61013150783307,14.021664219800952zM185.61195350338025,30.447192133282574L98.71746905494203,16.899509292870924L186.50461595627127,29.684732986886942zM185.61195350338025,28.33180620660824L186.50461595627127,27.569347060212607L99.61013150783307,14.021664219800952zM98.71746905494203,16.899509292870924L185.61195350338025,30.447192133282574L185.61195350338025,28.33180620660824z" style="fill:rgb(238,238,238); fill-opacity: 0.4"></path><path d="M252.663056725276,80.25597909630608L238.1806419863432,77.99803185268341M238.1806419863432,-9.978391806513113L238.1806419863432,77.99803185268341M238.1806419863432,77.99803185268341L231.9931773452097,83.28299594336838M186.50461595627127,27.569347060212607L186.50461595627127,29.684732986886946M186.50461595627127,29.684732986886946L185.61195350338025,30.447192133282577M186.50461595627127,27.569347060212607L185.61195350338025,28.33180620660824" style="fill:none;stroke:rgb(0,0,0);stroke-width:1;stroke-linecap:round"></path><path d="M185.61195350338025,30.447192133282574L186.50461595627127,29.684732986886942L186.50461595627127,27.569347060212607zM185.61195350338025,28.33180620660824L185.61195350338025,30.447192133282574L186.50461595627127,27.569347060212607z" style="fill:rgb(238,238,238); fill-opacity: 0.4"></path><path d="M185.61195350338025,28.33180620660824L185.61195350338025,30.447192133282577M252.663056725276,-7.7204445628904415L252.663056725276,80.25597909630608M252.663056725276,80.25597909630608L246.47559208414245,85.54094318699104" style="fill:none;stroke:rgb(0,0,0);stroke-width:1;stroke-linecap:round"></path><path d="M231.99317734520966,83.28299594336836L238.1806419863432,77.9980318526834L252.663056725276,80.25597909630608z" style="fill:rgb(238,238,238); fill-opacity: 0.4"></path><path d="M195.38886473924222,30.462996435706717L219.0684003213244,34.154862955320525" style="fill:none;stroke:rgb(0,0,0);stroke-width:1;stroke-linecap:round"></path><path d="M246.47559208414245,85.54094318699104L231.99317734520966,83.28299594336836L252.663056725276,80.25597909630608zM252.663056725276,80.25597909630608L238.1806419863432,77.9980318526834L238.1806419863432,-9.978391806513107z" style="fill:rgb(238,238,238); fill-opacity: 0.4"></path><path d="M231.9931773452097,-4.693427715828149L231.9931773452097,83.28299594336838M231.9931773452097,83.28299594336838L246.47559208414245,85.54094318699104M246.47559208414245,-2.4354804722054784L246.47559208414245,85.54094318699104" style="fill:none;stroke:rgb(0,0,0);stroke-width:1;stroke-linecap:round"></path><path d="M216.94596916171065,37.601942895415576L219.0684003213244,39.443327772006356L232.99753889901976,36.32654914332864z" style="fill:rgb(0,0,0)"></path><path d="M238.1806419863432,77.9980318526834L231.99317734520966,83.28299594336836L231.99317734520966,-4.693427715828147z" style="fill:rgb(238,238,238); fill-opacity: 0.4"></path><path d="M220.38013486550315,28.755999412574397L217.7566657771456,30.996810589549735L232.99753889901976,36.32654914332864z" style="fill:rgb(0,0,0)"></path><path d="M246.47559208414245,85.54094318699104L252.663056725276,80.25597909630608L252.66305672527596,-7.72044456289043z" style="fill:rgb(238,238,238); fill-opacity: 0.4"></path><path d="M217.7566657771456,30.996810589549735L216.94596916171065,37.601942895415576L232.99753889901976,36.32654914332864z" style="fill:rgb(0,0,0)"></path><path d="M308.93288715749964,81.6976189493346L294.45047241856685,79.43967170571192M294.45047241856685,6.125979943343546L294.45047241856685,79.43967170571192M294.45047241856685,79.43967170571192L288.26300777743336,84.72463579639688" style="fill:none;stroke:rgb(0,0,0);stroke-width:1;stroke-linecap:round"></path><path d="M252.66305672527596,-7.72044456289043L252.663056725276,80.25597909630608L238.1806419863432,-9.978391806513107zM238.1806419863432,-9.978391806513107L238.1806419863432,77.9980318526834L231.99317734520966,-4.693427715828147zM231.99317734520966,83.28299594336836L246.47559208414245,85.54094318699104L246.47559208414242,-2.4354804722054664z" style="fill:rgb(238,238,238); fill-opacity: 0.4"></path><path d="M251.6586951714659,39.236002237149286L275.3382307535481,42.9278687567631M308.93288715749964,8.383927186966217L308.93288715749964,81.6976189493346M308.93288715749964,81.6976189493346L302.74542251636615,86.98258304001956" style="fill:none;stroke:rgb(0,0,0);stroke-width:1;stroke-linecap:round"></path><path d="M288.26300777743336,84.72463579639687L294.4504724185669,79.4396717057119L308.93288715749964,81.6976189493346z" style="fill:rgb(238,238,238); fill-opacity: 0.4"></path><path d="M252.663056725276,-7.7204445628904415L238.1806419863432,-9.978391806513113M238.1806419863432,-9.978391806513113L231.9931773452097,-4.693427715828149" style="fill:none;stroke:rgb(0,0,0);stroke-width:1;stroke-linecap:round"></path><path d="M308.93288715749964,81.6976189493346L294.4504724185669,79.4396717057119L294.4504724185669,6.12597994334354zM246.47559208414242,-2.4354804722054664L246.47559208414245,85.54094318699104L252.66305672527596,-7.72044456289043zM302.74542251636615,86.98258304001956L288.26300777743336,84.72463579639687L308.93288715749964,81.6976189493346zM231.99317734520966,-4.693427715828147L231.99317734520966,83.28299594336836L246.47559208414242,-2.4354804722054664z" style="fill:rgb(238,238,238); fill-opacity: 0.4"></path><path d="M288.26300777743336,11.410944034028505L288.26300777743336,84.72463579639688M288.26300777743336,84.72463579639688L302.74542251636615,86.98258304001956M252.663056725276,-7.7204445628904415L246.47559208414245,-2.4354804722054784" style="fill:none;stroke:rgb(0,0,0);stroke-width:1;stroke-linecap:round"></path><path d="M273.2157995939343,46.374948696858155L275.33823075354803,48.216333573448935L289.2673693312434,45.099554944771214z" style="fill:rgb(0,0,0)"></path><path d="M246.47559208414242,-2.4354804722054664L252.66305672527596,-7.72044456289043L238.1806419863432,-9.978391806513107z" style="fill:rgb(238,238,238); fill-opacity: 0.4"></path><path d="M276.64996529772685,37.529005214016976L274.02649620936927,39.76981639099231L289.2673693312434,45.099554944771214z" style="fill:rgb(0,0,0)"></path><path d="M294.4504724185669,79.4396717057119L288.26300777743336,84.72463579639687L288.26300777743336,11.410944034028505z" style="fill:rgb(238,238,238); fill-opacity: 0.4"></path><path d="M302.74542251636615,13.668891277651184L302.74542251636615,86.98258304001956" style="fill:none;stroke:rgb(0,0,0);stroke-width:1;stroke-linecap:round"></path><path d="M274.02649620936927,39.76981639099231L273.2157995939343,46.374948696858155L289.2673693312434,45.099554944771214z" style="fill:rgb(0,0,0)"></path><path d="M302.74542251636615,86.98258304001956L308.93288715749964,81.6976189493346L308.93288715749964,8.38392718696622zM231.99317734520966,-4.693427715828147L246.47559208414242,-2.4354804722054664L238.1806419863432,-9.978391806513107z" style="fill:rgb(238,238,238); fill-opacity: 0.4"></path><path d="M231.9931773452097,-4.693427715828149L246.47559208414245,-2.4354804722054784" style="fill:none;stroke:rgb(0,0,0);stroke-width:1;stroke-linecap:round"></path><path d="M308.93288715749964,8.38392718696622L308.93288715749964,81.6976189493346L294.4504724185669,6.12597994334354zM294.4504724185669,6.12597994334354L294.4504724185669,79.4396717057119L288.26300777743336,11.410944034028505zM288.26300777743336,84.72463579639687L302.74542251636615,86.98258304001956L302.74542251636615,13.668891277651184z" style="fill:rgb(238,238,238); fill-opacity: 0.4"></path><path d="M307.9285256036895,48.00900803859186L331.60806118577165,51.70087455820566M308.93288715749964,8.383927186966217L294.45047241856685,6.125979943343546M294.45047241856685,6.125979943343546L288.26300777743336,11.410944034028505M365.2027175897233,61.1451478440909L350.7203028507906,58.88720060046822M350.7203028507906,44.224462651472386L350.7203028507906,58.88720060046822M350.7203028507906,58.88720060046822L344.532838209657,64.17216469115318" style="fill:none;stroke:rgb(0,0,0);stroke-width:1;stroke-linecap:round"></path><path d="M302.74542251636615,13.668891277651184L302.74542251636615,86.98258304001956L308.93288715749964,8.38392718696622z" style="fill:rgb(238,238,238); fill-opacity: 0.4"></path><path d="M308.93288715749964,8.383927186966217L302.74542251636615,13.668891277651184" style="fill:none;stroke:rgb(0,0,0);stroke-width:1;stroke-linecap:round"></path><path d="M288.26300777743336,11.410944034028505L288.26300777743336,84.72463579639687L302.74542251636615,13.668891277651184zM302.74542251636615,13.668891277651184L308.93288715749964,8.38392718696622L294.4504724185669,6.12597994334354zM365.2027175897233,61.145147844090886L350.7203028507905,58.88720060046822L350.7203028507905,44.224462651472386z" style="fill:rgb(238,238,238); fill-opacity: 0.4"></path><path d="M329.48563002615793,55.147954498300734L331.60806118577165,56.989339374891514L345.537199763467,53.872560746213786z" style="fill:rgb(0,0,0)"></path><path d="M365.2027175897233,46.48240989509507L350.7203028507906,44.224462651472386M350.7203028507906,44.224462651472386L344.532838209657,49.509426742157345M365.2027175897233,46.48240989509507L365.2027175897233,61.1451478440909M365.2027175897233,61.1451478440909L359.01525294858976,66.43011193477587" style="fill:none;stroke:rgb(0,0,0);stroke-width:1;stroke-linecap:round"></path><path d="M288.26300777743336,11.410944034028505L302.74542251636615,13.668891277651184L294.4504724185669,6.12597994334354z" style="fill:rgb(238,238,238); fill-opacity: 0.4"></path><path d="M332.91979572995047,46.302011015459556L330.2963266415929,48.54282219243489L345.537199763467,53.872560746213786z" style="fill:rgb(0,0,0)"></path><path d="M344.5328382096569,64.17216469115318L350.7203028507905,58.88720060046822L365.2027175897233,61.145147844090886zM365.2027175897233,46.48240989509505L365.2027175897233,61.145147844090886L350.7203028507905,44.224462651472386z" style="fill:rgb(238,238,238); fill-opacity: 0.4"></path><path d="M330.2963266415929,48.54282219243489L329.48563002615793,55.147954498300734L345.537199763467,53.872560746213786z" style="fill:rgb(0,0,0)"></path><path d="M350.7203028507905,44.224462651472386L350.7203028507905,58.88720060046822L344.5328382096569,49.50942674215736z" style="fill:rgb(238,238,238); fill-opacity: 0.4"></path><path d="M288.26300777743336,11.410944034028505L302.74542251636615,13.668891277651184" style="fill:none;stroke:rgb(0,0,0);stroke-width:1;stroke-linecap:round"></path><path d="M350.7203028507905,58.88720060046822L344.5328382096569,64.17216469115318L344.5328382096569,49.50942674215736z" style="fill:rgb(238,238,238); fill-opacity: 0.4"></path><path d="M365.2027175897233,46.48240989509507L359.01525294858976,51.767373985780026" style="fill:none;stroke:rgb(0,0,0);stroke-width:1;stroke-linecap:round"></path><path d="M359.01525294858976,66.43011193477587L365.2027175897233,61.145147844090886L365.2027175897233,46.48240989509505zM359.01525294858976,66.43011193477587L344.5328382096569,64.17216469115318L365.2027175897233,61.145147844090886z" style="fill:rgb(238,238,238); fill-opacity: 0.4"></path><path d="M344.532838209657,49.509426742157345L344.532838209657,64.17216469115318M344.532838209657,64.17216469115318L359.01525294858976,66.43011193477587" style="fill:none;stroke:rgb(0,0,0);stroke-width:1;stroke-linecap:round"></path><path d="M359.01525294858976,51.767373985780026L365.2027175897233,46.48240989509505L350.7203028507905,44.224462651472386zM344.5328382096569,49.50942674215736L359.01525294858976,51.767373985780026L350.7203028507905,44.224462651472386zM359.01525294858976,51.767373985780026L359.01525294858976,66.43011193477587L365.2027175897233,46.48240989509505z" style="fill:rgb(238,238,238); fill-opacity: 0.4"></path><path d="M344.532838209657,49.509426742157345L359.01525294858976,51.767373985780026" style="fill:none;stroke:rgb(0,0,0);stroke-width:1;stroke-linecap:round"></path><path d="M344.5328382096569,49.50942674215736L344.5328382096569,64.17216469115318L359.01525294858976,51.767373985780026zM344.5328382096569,64.17216469115318L359.01525294858976,66.43011193477587L359.01525294858976,51.767373985780026z" style="fill:rgb(238,238,238); fill-opacity: 0.4"></path><path d="M359.01525294858976,51.767373985780026L359.01525294858976,66.43011193477587" style="fill:none;stroke:rgb(0,0,0);stroke-width:1;stroke-linecap:round"></path></svg>